<?xml version="1.0" encoding="utf-8"?>
<!-- Generator: Adobe Illustrator 18.0.0, SVG Export Plug-In . SVG Version: 6.00 Build 0)  -->
<!DOCTYPE svg PUBLIC "-//W3C//DTD SVG 1.1//EN" "http://www.w3.org/Graphics/SVG/1.1/DTD/svg11.dtd">
<svg version="1.1" id="Capa_1" xmlns="http://www.w3.org/2000/svg" xmlns:xlink="http://www.w3.org/1999/xlink" x="0px" y="0px"
	 viewBox="245 45 470 470" enable-background="new 245 45 470 470" xml:space="preserve">
<g>
	<g>
		<path fill="#3A3A3A" d="M565.2,158.6H394.8c-3.6,0-6.5,2.9-6.5,6.5v229.8c0,3.6,2.9,6.5,6.5,6.5h127.1c1.9,0,3.6-0.8,4.9-2.2
			l43.3-48.5c1-1.2,1.6-2.7,1.6-4.3V165.1C571.7,161.5,568.8,158.6,565.2,158.6z M551.2,328.3h-38.9l0,0c-2,0-3.8,0.8-5.1,2.1
			c-1.3,1.3-2.1,3.2-2.1,5.2l0.2,48.6h-97.5V174.9h143.4V328.3z"/>
		<path fill="#3A3A3A" d="M421.2,330c0,0,9.7,0.8,17-7.1c0,0,17.1-21.2,20.4-27.8c0,0,3.3-5.6,39-12.2l33.5,9.1c0,0,9.4,0.9,6.1-1
			c-3.3-2-18.2-4.3-26.1-9c-0.4-0.2-0.9-0.5-1.3-0.7c4.1-1,17.1,1.1,25.7,5.2c4.6,2.7,4,4.6,7.3,2c3.3-2.7-3.3-6-8.6-8
			c-4.4-1.6-26.3-4.1-33.6-4.9c-7.6-5.4-15.7-14.3-21.4-30.7c0,0-4.6-17.2-5.3-23.2c-0.6-6,2-11.9,3.3-6.7c0,0,2.7,6,1.3,10.6l1.3,8
			c0,0,6.7-18.1,1.3-24.4c0,0-12.5-4.7-13.2,6.6s0.7,27.7,2,30.3c0,0-13.2,40.3-30.4,64.9c0,0-7.3,10.6-10.6,11.9
			c0,0-7.9,3.4-2.7-3.9c0,0,12.5-14.6,15.2-18.6c0,0-19.1,12.2-23,18C415.7,321.1,412.8,326.8,421.2,330z M475.9,258.5
			c1.3,6.7,14.2,19.4,14.2,19.4c-5.3,0.7-28.2,8.5-28.2,8.5L475.9,258.5z"/>
	</g>
</g>
</svg>
