<?xml version="1.0" encoding="utf-8"?>
<!-- Generator: Adobe Illustrator 18.0.0, SVG Export Plug-In . SVG Version: 6.00 Build 0)  -->
<!DOCTYPE svg PUBLIC "-//W3C//DTD SVG 1.1//EN" "http://www.w3.org/Graphics/SVG/1.1/DTD/svg11.dtd">
<svg version="1.1" id="Capa_1" xmlns="http://www.w3.org/2000/svg" xmlns:xlink="http://www.w3.org/1999/xlink" x="0px" y="0px"
	 viewBox="245 45 470 470" enable-background="new 245 45 470 470" xml:space="preserve">
<g>
	<g>
		<circle fill="#3A3A3A" cx="479.5" cy="159.4" r="24.4"/>
		<path fill="#3A3A3A" d="M488,195.5c-6.1-1.2-12.7-1.2-18.7,0.2c-40.6,4.8-53.8,51.7-50,87.5c1.6,15.5,26,15.6,24.4,0
			c-1.4-13.1-0.8-32.8,6.2-46.8c0,17,0,34,0,51c0,0.6,0.1,1.2,0.1,1.7c0,0.3-0.1,0.5-0.1,0.8c0,40.5-0.1,81-1.7,121.5
			c-0.7,18,27.2,17.9,27.9,0c1.3-31.7,1.6-63.5,1.7-95.2c1.3,0.1,2.6,0.1,4,0c0.1,31.7,0.4,63.5,1.7,95.2c0.7,17.9,28.6,18,27.9,0
			c-1.7-40.5-1.7-81-1.7-121.5c0-1.3-0.2-2.4-0.4-3.5c0-17.6-0.7-35.2-0.5-52.8c8.3,14.1,9.1,35.5,7.6,49.4
			c-1.6,15.6,22.8,15.5,24.4,0C544.5,246.7,530.7,198.5,488,195.5z"/>
	</g>
</g>
</svg>
