<?xml version="1.0" encoding="utf-8"?>
<!-- Generator: Adobe Illustrator 18.0.0, SVG Export Plug-In . SVG Version: 6.00 Build 0)  -->
<!DOCTYPE svg PUBLIC "-//W3C//DTD SVG 1.1//EN" "http://www.w3.org/Graphics/SVG/1.1/DTD/svg11.dtd">
<svg version="1.1" id="Capa_1" xmlns="http://www.w3.org/2000/svg" xmlns:xlink="http://www.w3.org/1999/xlink" x="0px" y="0px"
	 viewBox="-239 -245 478 478" enable-background="new -239 -245 478 478" xml:space="preserve">
<g>
	<g>
		<polygon fill="#3A3A3A" points="-111.2,61.3 -111.2,-41.1 -8.6,-41.1 -14.6,-50.4 -120.5,-50.4 -120.5,70.6 -43.7,70.6 -30,61.3 
					"/>
		<polygon fill="#3A3A3A" points="56.9,61.3 52.3,61.3 60.7,70.6 66.2,70.6 66.2,3.2 56.9,-0.1 		"/>
		<rect x="-51.6" y="-20.5" fill="#3A3A3A" width="55.6" height="7.1"/>
		<rect x="-72.3" y="-2.3" fill="#3A3A3A" width="97" height="7.8"/>
		<rect x="-72.3" y="14" fill="#3A3A3A" width="97" height="7.8"/>
		<rect x="-72.3" y="29.5" fill="#3A3A3A" width="97" height="7.8"/>
		<path fill="#3A3A3A" d="M36.4,63.5c0-11.6-9.4-21-21-21c-11.6,0-21,9.4-21,21c0,11.6,9.4,21,21,21C27,84.5,36.4,75.1,36.4,63.5z"
			/>
		<polygon fill="#3A3A3A" points="15.4,95.1 32.4,116.6 40.5,95.3 63.1,92.3 46.1,70.9 		"/>
		<polygon fill="#3A3A3A" points="-38.5,80.5 -17.2,88.6 -14.3,111.2 7.2,94.2 -17,63.5 		"/>
		<polygon fill="#3A3A3A" points="-9.6,-116.6 -16,-107.6 3.7,-93.5 -17.1,-64.2 18.7,-18.6 70.8,-1.5 91.7,-30.8 101.3,-24 
			86.5,-3.2 81.7,-6.6 69.2,11 84.1,21.6 96.6,4 93.4,1.7 108.2,-19.1 114.1,-14.9 120.5,-23.9 		"/>
	</g>
</g>
</svg>
