<?xml version="1.0" encoding="utf-8"?>
<!-- Generator: Adobe Illustrator 18.0.0, SVG Export Plug-In . SVG Version: 6.00 Build 0)  -->
<!DOCTYPE svg PUBLIC "-//W3C//DTD SVG 1.1//EN" "http://www.w3.org/Graphics/SVG/1.1/DTD/svg11.dtd">
<svg version="1.1" id="Capa_1" xmlns="http://www.w3.org/2000/svg" xmlns:xlink="http://www.w3.org/1999/xlink" x="0px" y="0px"
	 viewBox="0 0 32.7 32.7" enable-background="new 0 0 32.7 32.7" xml:space="preserve">
<g>
	<path fill="#FDFDFF" d="M28.2,16.5h-1.7c0-5.4-4.4-9.9-9.9-9.9l0-1.7C23,5,28.2,10.1,28.2,16.5z M16.7,7.9l0,1.7c3.9,0,7,3.1,7,7
		l1.7,0C25.3,11.7,21.4,7.9,16.7,7.9z M16.3,0C7.3,0,0,7.3,0,16.3c0,9,7.3,16.3,16.3,16.3c0.6,0,1-0.5,1-1c0-0.6-0.5-1-1-1
		C8.4,30.6,2,24.2,2,16.3C2,8.4,8.4,2,16.3,2s14.3,6.4,14.3,14.3c0,3.3-1.8,6.6-4.3,8c-0.9,0.5-1.9,0.8-3,0.8
		c0.6-0.4,1.2-0.9,1.6-1.5c0.1-0.1,0.2-0.2,0.2-0.4c0.3-0.8,0.4-1.7,0.6-2.5c0.2-1.1-4.7-3.1-5.1-1.8c-0.2,0.5-0.4,2-0.7,2.5
		c-0.3,0.4-1,0.2-1.4-0.2c-1.1-1-2.4-2.4-3.5-3.5l0,0c0,0-0.1-0.1-0.1-0.1c0,0-0.1-0.1-0.1-0.1v0c-1.1-1.1-2.5-2.3-3.5-3.5
		c-0.4-0.4-0.5-1.1-0.2-1.4c0.4-0.3,2-0.5,2.5-0.7c1.3-0.4-0.8-5.3-1.8-5.1c-0.8,0.2-1.7,0.2-2.5,0.6C9.4,7.5,9.3,7.6,9.1,7.7
		C6.3,9.4,6,13.7,8.7,16.9c1,1.2,2.1,2.4,3.2,3.6l0,0c0,0,0.1,0.1,0.1,0.1c0,0,0.1,0.1,0.1,0.1l0,0c1.2,1.1,2.5,2.8,4.8,4.3
		c4.7,3.1,8.3,2.3,10.4,1.1c3.7-2,5.3-6.3,5.3-9.7C32.7,7.3,25.3,0,16.3,0z"/>
</g>
</svg>
