<?xml version="1.0" encoding="utf-8"?>
<!-- Generator: Adobe Illustrator 18.0.0, SVG Export Plug-In . SVG Version: 6.00 Build 0)  -->
<!DOCTYPE svg PUBLIC "-//W3C//DTD SVG 1.1//EN" "http://www.w3.org/Graphics/SVG/1.1/DTD/svg11.dtd">
<svg version="1.1" id="Capa_1" xmlns="http://www.w3.org/2000/svg" xmlns:xlink="http://www.w3.org/1999/xlink" x="0px" y="0px"
	 viewBox="247.5 115 305 305" enable-background="new 247.5 115 305 305" xml:space="preserve">
<g>
	<path fill="#3A3A3A" d="M398,182.6c-28.2,0-51.2,23-51.2,51.2c0,11.4,7.3,29.9,22.2,56.7c10.5,18.9,21,34.7,21.4,35.4l7.6,11.5
		l7.6-11.5c0.4-0.7,10.8-16.5,21.4-35.4c14.9-26.8,22.2-45.3,22.2-56.7C449.2,205.6,426.2,182.6,398,182.6z M398,260
		c-14.7,0-26.5-11.9-26.5-26.5s11.9-26.5,26.5-26.5c14.7,0,26.5,11.9,26.5,26.5S412.7,260,398,260z"/>
</g>
</svg>
